<svg xmlns="http://www.w3.org/2000/svg"  viewBox="0 0 48 48" width="48px" height="48px"><path fill="#38b47b" d="M42.426,43.546c-0.254-2.034,0.242-3.538-0.012-5.572c-0.155-1.237-0.31-2.479-0.635-3.684 c-1.376-5.102-6.013-9.194-11.307-9.976c-1.671-0.247-3.372-0.19-5.059-0.105c-4.429,0.222-9.028,0.683-12.816,2.956 c-4.094,2.457-6.816,7.002-7.022,11.724c-0.068,1.565,0.154,3.059,0.441,4.6c7.34-0.1,14.707,0.458,22.047,0.348 C33.104,43.762,37.453,43.479,42.426,43.546z"/><path fill="#fcbf95" d="M23.274,4.535c-1.456,0.03-1.506,0.066-2.917,0.436s-2.769,1.131-3.602,2.345 c-0.915,1.333-1.099,3.035-1.175,4.658c-0.204,4.377,0.271,9.037,2.84,12.556c0.469,0.643,1.001,1.236,1.557,1.803 c0.656,0.668,1.359,1.31,2.193,1.725c1.844,0.916,4.146,0.564,5.852-0.596c1.706-1.16,2.86-3.026,3.504-5.007 c0.644-1.981,0.821-4.085,0.901-6.17c0.067-1.751,0.068-3.524-0.32-5.231c-0.389-1.707-1.199-3.362-2.524-4.483 C27.61,4.901,25.813,4.484,23.274,4.535z"/><path fill="#010101" d="M42.91,37.91c-0.15-1.23-0.31-2.51-0.65-3.75c-1.346-4.985-5.72-9.043-10.805-10.16 c0.226-0.489,0.408-0.963,0.547-1.392c0.68-2.09,0.846-4.266,0.925-6.306c0.066-1.733,0.072-3.582-0.333-5.362 c-0.318-1.4-1.044-3.361-2.688-4.753c-2.198-1.86-4.181-2.209-6.641-2.152h-0.001c-1.427,0.029-1.582,0.07-2.791,0.389L20.23,4.487 c-1.684,0.441-3.063,1.346-3.887,2.545c-0.975,1.42-1.183,3.203-1.262,4.918c-0.256,5.477,0.665,9.617,2.797,12.662 c-1.923,0.435-3.812,1.09-5.539,2.128c-4.27,2.56-7.05,7.21-7.26,12.13c-0.07,1.55,0.13,3,0.44,4.71c0.05,0.24,0.26,0.39,0.5,0.41 c3.63-0.05,7.34,0.06,10.92,0.17c3,0.1,6.09,0.19,9.15,0.19c0.66,0,1.32,0,1.98-0.01c1.93-0.03,3.76-0.09,5.56-0.15 c2.95-0.1,5.73-0.19,8.79-0.14c0.16-0.02,0.28-0.06,0.38-0.17c0.09-0.11,0.14-0.25,0.12-0.4c-0.12-0.97-0.06-1.8,0-2.69 C42.98,39.9,43.04,38.98,42.91,37.91z M16.08,11.997c0.073-1.567,0.255-3.186,1.088-4.398c0.688-1.002,1.865-1.764,3.316-2.145 l0.242-0.063c1.155-0.304,1.25-0.328,2.558-0.355c2.694-0.059,4.239,0.446,5.975,1.916c1.435,1.213,2.075,2.96,2.36,4.212 c0.379,1.666,0.372,3.437,0.308,5.101c-0.075,1.969-0.233,4.062-0.876,6.036c-0.673,2.067-1.849,3.754-3.31,4.748 c-1.662,1.128-3.763,1.349-5.349,0.561c-0.797-0.395-1.487-1.044-2.059-1.627c-0.625-0.637-1.104-1.192-1.51-1.747 C16.729,21.363,15.83,17.36,16.08,11.997z M41.92,40.73c-0.05,0.73-0.1,1.48-0.04,2.31c-2.87-0.03-5.5,0.06-8.28,0.15 c-1.8,0.06-3.62,0.12-5.55,0.15c-3.68,0.06-7.44-0.06-11.08-0.17c-3-0.1-6.08-0.19-9.15-0.19H6.43c-0.26-1.46-0.41-2.74-0.35-4.07 c0.19-4.52,2.85-8.96,6.77-11.32c1.751-1.054,3.698-1.693,5.689-2.11c0.317,0.383,0.661,0.774,1.081,1.202 c0.629,0.643,1.397,1.361,2.327,1.823c0.771,0.382,1.636,0.569,2.524,0.569c1.31,0,2.666-0.408,3.832-1.2 c1.198-0.814,2.052-1.885,2.669-2.953c4.846,0.947,9.044,4.772,10.328,9.499c0.31,1.17,0.47,2.41,0.62,3.62 C42.04,39,41.98,39.84,41.92,40.73z"/></svg>